<?xml version="1.0" encoding="UTF-8" standalone="no"?>
<!DOCTYPE svg PUBLIC "-//W3C//DTD SVG 1.1//EN" "http://www.w3.org/Graphics/SVG/1.1/DTD/svg11.dtd">
<svg width="100%" height="100%" viewBox="0 0 1200 1200" version="1.1" xmlns="http://www.w3.org/2000/svg" xmlns:xlink="http://www.w3.org/1999/xlink" xml:space="preserve" xmlns:serif="http://www.serif.com/" style="fill-rule:evenodd;clip-rule:evenodd;stroke-linejoin:round;stroke-miterlimit:2;">
    <g transform="matrix(1.65821,0,0,1.65821,12.2231,12.2231)">
        <g id="Circles">
            <g>
                <g transform="matrix(0.1,0,0,-0.1,0,1024)">
                    <path d="M6345.86,7291C6316.86,7350 6315.86,7353 6327.86,7408C6344.09,7481.49 6341.77,7561.27 6340.72,7636.03C6339.42,7728.69 6332.99,7820.07 6310.53,7910.26C6267.76,8082 6182.78,8240.85 6080.41,8384.18C6058.9,8414.3 6036.37,8444.07 6008.59,8468.52C5993.37,8481.91 5976.72,8493.57 5960.11,8505.19C5918.31,8534.45 5876.51,8563.71 5834.71,8592.97C5797.64,8618.92 5755.65,8638.74 5730.48,8677.35C5703.96,8718.05 5679.92,8760.02 5651.65,8799.67C5592.92,8882.03 5525.95,8958.51 5452.06,9027.59C5426.2,9051.77 5399.49,9075.04 5371.99,9097.34C5338.85,9124.21 5304.55,9149.69 5268.59,9172.64C5096.07,9282.71 4884.57,9336.15 4681.61,9348.74C4639.68,9351.34 4607.83,9356.38 4575.87,9384.99C4488.02,9463.62 4381.8,9522.21 4275.44,9571.68C4155.65,9627.39 4029.79,9672.03 3900.85,9701.15C3757.69,9733.48 3612.25,9735.08 3466.17,9734.53C3352.28,9734.1 3240.03,9718.27 3129.31,9691.77C3111.73,9687.56 3094.22,9683.06 3076.87,9677.99C2871.87,9618.99 2639.87,9495.99 2511.87,9379.99C2484.87,9355.99 2471.87,9351.99 2387.87,9345.99C2231.87,9334.99 2137.87,9312.99 1993.87,9254.99C1988.82,9252.78 1985.21,9251.65 1982.79,9252.09C1979.86,9250.75 1976.69,9249.71 1973.29,9248.97C1971.16,9247.99 1968.89,9247.18 1966.58,9246.45C1958.36,9243.23 1950.09,9240.42 1941.82,9237.6C1901.43,9218.64 1864.87,9194.91 1825.15,9173.14C1824.61,9172.84 1824.07,9172.63 1823.53,9172.35C1814.09,9164.62 1798.5,9153.52 1774.87,9136.98C1630.87,9037.98 1416.87,8791.98 1355.87,8657.98C1349.87,8642.98 1334.87,8626.98 1322.87,8623.98C1306.58,8619.91 1290.41,8608.35 1276.2,8599.91C1253.65,8586.52 1231.96,8571.87 1210.21,8557.31C1153.31,8519.19 1100.07,8472.42 1050.15,8425.5C1010.5,8388.23 981.69,8345.7 952.87,8299.82C923.57,8253.18 896.49,8205.14 871.75,8155.93C825.73,8064.4 795.09,7963.9 773.68,7863.98C753.5,7766.96 744.27,7667.62 746.52,7568.54C747.49,7525.9 750.59,7483.31 755.88,7440.99L768.88,7344.99L727.88,7269.99C672.88,7166.99 620.88,7005.99 595.88,6858.99C577.88,6754.99 575.88,6708.99 579.88,6579.99C586.88,6384.99 620.88,6238.99 696.88,6083.99L746.88,5980.99C680.54,5529.89 850.3,5038.32 1239.86,4782C1328.93,4723.39 1366.71,4632.15 1425.77,4547.04C1492.6,4450.75 1573.93,4364.69 1665.43,4291.5C1848.42,4145.15 2073,4049.56 2306.51,4025.68C2357.16,4020.5 2407.08,4019.98 2457.87,4019.98L2549.87,3953.98C2761.87,3800.98 3077.87,3684.98 3337.87,3663.98L3409.46,3657.39C3441.65,3657.76 3474.07,3655.1 3506.41,3653.01C3507.03,3652.98 3507.66,3652.95 3508.29,3652.9C3522.81,3651.97 3537.3,3651.29 3551.76,3650.94C3566.09,3651.23 3580.46,3651.42 3594.84,3651.73C3597.4,3652.1 3600.04,3652.35 3602.85,3652.36C3609.11,3652.37 3615.34,3652.45 3621.56,3652.64C3630.42,3653.07 3639.25,3653.64 3648.03,3654.48C3649.1,3654.58 3650.15,3654.56 3651.21,3654.57C3653.41,3654.85 3655.7,3655.01 3658.09,3655.01C3658.26,3655.01 3658.41,3654.99 3658.58,3654.99C3662.04,3655.69 3665.57,3656.1 3669.12,3656.15L3765.88,3668C3889.88,3682 4106.88,3738 4221.88,3784C4334.88,3830 4473.87,3907 4556.87,3969.99C4589.51,3994.76 4617.84,4015.43 4659.3,4019.13C4715.71,4024.17 4771.33,4027.1 4827.71,4035.63C4952.2,4054.48 5076.6,4083.32 5190.24,4138.97C5248.72,4167.61 5303.71,4203.02 5355.98,4241.86C5511.59,4357.5 5669.07,4515.95 5749.88,4694.98C5781.03,4763.98 5877.14,4799.93 5933.38,4846.72C6002.13,4903.91 6064.04,4969.26 6117.82,5040.69C6228.07,5187.16 6295.45,5352.95 6334.42,5531C6361.86,5656.35 6369.89,5812.54 6348.88,5939.98C6340.88,5991.98 6341.88,5998.98 6373.88,6056.98C6446.88,6189.98 6487.88,6338.98 6506.88,6535.98C6528.86,6775 6472.86,7041 6345.86,7291ZM5806.38,8492.95C5810.38,8492.95 5843.38,8469.95 5880.38,8442.95C6060.38,8306.95 6207.38,8058.95 6247.38,7817.95C6262.38,7730.95 6264.38,7452.95 6251.38,7452.95C6246.38,7452.95 6232.38,7469.95 6218.38,7489.95C6176.38,7551.95 6032.38,7696.95 5927.38,7784.95C5836.38,7859.95 5827.38,7869.95 5832.38,7894.95C5864.38,8055.95 5859.38,8265.95 5819.38,8420.95C5808.38,8459.95 5803.38,8492.95 5806.38,8492.95ZM5817.38,7752.95C5826.38,7748.95 5878.38,7704.95 5933.38,7655.95C6038.38,7561.95 6113.38,7477.95 6180.38,7378.95C6219.38,7321.95 6220.38,7318.95 6208.38,7278.95C6170.38,7147.95 6056.38,6962.95 5923.38,6815.95L5857.38,6742.95L5800.38,6785.95C5769.38,6809.95 5710.38,6851.95 5671.38,6877.95C5631.38,6903.95 5598.38,6928.95 5598.38,6931.95C5598.38,6946.95 5668.38,7181.95 5687.38,7232.95C5699.38,7262.95 5708.38,7298.95 5708.38,7311.95C5708.38,7343.95 5681.38,7372.95 5651.38,7372.95C5629.38,7372.95 5629.38,7375.95 5682.38,7480.95C5711.38,7539.95 5750.38,7626.95 5768.38,7674.95C5795.38,7746.94 5804.38,7760.95 5817.38,7752.95ZM4995.38,5041.94C4886.38,4972.94 4730.38,4881.94 4700.38,4870.94C4676.38,4861.94 4659.38,4867.94 4568.38,4912.94C4381.38,5006.94 4071.38,5188.94 4081.38,5198.94C4083.38,5201.94 4134.38,5191.94 4194.38,5177.94C4380.38,5132.94 4691.38,5071.94 4711.38,5074.94C4755.38,5081.94 4753.38,5102.94 4694.38,5288.94C4663.38,5386.94 4638.38,5480.94 4638.38,5496.94C4638.38,5518.94 4649.38,5535.94 4681.38,5564.94C4757.38,5632.94 4913.38,5752.94 4924.38,5752.94C4930.38,5752.94 4945.38,5731.94 4956.38,5705.94C5029.38,5532.94 5068.38,5343.94 5068.38,5165.94L5068.38,5087.94L4995.38,5041.94ZM5042.38,4945.95C5040.38,4935.95 5032.38,4893.95 5023.38,4852.95C5000.38,4741.95 5006.38,4745.95 4897.38,4776.95C4845.38,4791.95 4800.38,4806.95 4796.38,4810.95C4789.38,4817.95 5022.38,4961.95 5040.38,4962.95C5043.38,4962.95 5044.38,4954.95 5042.38,4945.95ZM4588.38,4802.95C4588.38,4799.95 4553.38,4779.95 4511.38,4758.95C4331.38,4670.95 4107.38,4525.95 4006.38,4433.95L3951.38,4383.95L3911.38,4425.95C3737.38,4606.95 3629.38,4836.95 3612.38,5067.95C3604.38,5165.95 3616.38,5211.95 3661.38,5248.95C3688.38,5271.95 3698.38,5273.95 3738.38,5268.95C3763.38,5265.95 3815.38,5247.95 3854.38,5228.95C3894.38,5209.95 3966.38,5167.95 4015.38,5134.95C4108.38,5072.95 4431.38,4885.95 4531.38,4836.95C4562.38,4821.94 4588.38,4805.95 4588.38,4802.95ZM5014.38,5803.94C5007.38,5818.94 5069.38,5869.94 5383.38,6107.94L5472.38,6175.94L5498.38,6142.94C5512.38,6124.94 5547.38,6069.94 5575.38,6019.94C5604.38,5969.94 5642.38,5894.94 5659.38,5853.94C5693.38,5771.94 5748.38,5567.94 5748.38,5523.94C5748.38,5501.94 5730.38,5485.94 5615.38,5411.94C5543.38,5363.94 5429.38,5294.94 5363.38,5256.94C5297.38,5219.94 5224.38,5176.94 5201.38,5160.94C5178.38,5145.94 5158.38,5132.94 5155.38,5132.94C5153.38,5132.94 5148.38,5192.94 5145.38,5265.94C5138.38,5427.95 5093.38,5612.95 5014.38,5803.94ZM5083.38,6017.95C4841.38,5831.95 4622.38,5659.95 4596.38,5634.95C4538.38,5578.95 4524.38,5539.95 4531.38,5458.95C4536.38,5405.95 4571.38,5269.95 4592.38,5221.95C4598.38,5206.95 4589.38,5207.95 4493.38,5223.95C4308.38,5254.95 4179.38,5282.95 3980.38,5334.95C3683.38,5410.95 3619.38,5409.95 3568.38,5327.95L3546.38,5292.95L3518.38,5330.95C3460.38,5411.95 3393.38,5410.95 3068.38,5328.95C2862.38,5276.95 2560.38,5212.95 2519.38,5212.95C2497.38,5212.95 2497.38,5209.95 2558.38,5414.95C2579.38,5482.95 2580.38,5495.95 2569.38,5533.95C2548.38,5604.95 2484.38,5658.95 1943.38,6067.95C1780.38,6190.95 1561.38,6360.95 1525.38,6392.95C1521.38,6396.95 1547.38,6416.95 1584.38,6438.95C1655.38,6480.95 1704.38,6528.95 1714.38,6566.95C1720.38,6590.95 1597.38,7030.95 1544.38,7176.95L1520.38,7242.95L1552.38,7238.95C1569.38,7235.95 1624.38,7228.95 1673.38,7222.95C1723.38,7216.95 1825.38,7202.95 1900.38,7191.95C1979.38,7178.95 2052.38,7172.95 2072.38,7176.95C2140.38,7189.95 2187.38,7248.95 2239.38,7388.95L2260.38,7444.95L2462.38,7244.95C2572.38,7134.95 2678.38,7037.95 2697.38,7027.95C2766.38,6992.95 2837.38,7023.95 2880.38,7106.95C2908.38,7160.95 2903.38,7209.95 2825.38,7645.95C2773.38,7940.95 2764.38,8002.95 2777.38,7997.95C2895.38,7950.95 2991.38,7921.95 3032.38,7921.95C3121.38,7920.95 3148.38,7953.95 3332.38,8288.95C3478.38,8555.95 3540.38,8662.95 3549.38,8662.95C3552.38,8662.95 3601.38,8578.95 3658.38,8475.95C3864.38,8098.95 3882.38,8066.95 3915.38,8014.95C3981.38,7909.95 4059.38,7895.95 4203.38,7961.95C4338.38,8024.95 4327.38,8028.95 4312.38,7920.95C4300.38,7835.95 4236.38,7452.95 4204.38,7274.95C4187.38,7180.95 4197.38,7128.95 4244.38,7073.95C4289.38,7021.95 4341.38,7005.95 4394.38,7027.95C4416.38,7036.95 4509.38,7120.95 4634.38,7244.95C4746.38,7355.95 4839.38,7444.95 4841.38,7441.95C4843.38,7439.95 4852.38,7410.95 4862.38,7377.95C4888.38,7293.95 4911.38,7250.95 4952.38,7214.95C5003.38,7169.95 5041.38,7166.95 5203.38,7191.95C5373.38,7217.95 5561.38,7242.95 5565.38,7239.95C5566.38,7237.95 5556.38,7209.95 5543.38,7175.95C5529.38,7142.95 5500.38,7048.95 5478.38,6966.95C5455.38,6884.95 5424.38,6775.95 5407.38,6724.95C5374.38,6619.95 5370.38,6548.95 5396.38,6516.95C5405.38,6504.95 5447.38,6475.95 5488.38,6452.95C5529.38,6428.95 5565.38,6407.95 5567.38,6405.95C5577.38,6397.95 5514.38,6347.95 5083.38,6017.95ZM2159.38,5008.94L2025.38,5086.94L2031.38,5236.94C2037.38,5392.94 2053.38,5478.94 2101.38,5617.94C2142.38,5733.94 2157.38,5764.94 2171.38,5755.94C2178.38,5751.94 2241.38,5703.94 2311.38,5649.94C2381.38,5594.94 2443.38,5541.94 2448.38,5531.94C2466.38,5498.94 2458.38,5440.94 2422.38,5336.94C2369.38,5182.94 2349.38,5106.94 2358.38,5092.94C2369.38,5074.94 2405.38,5077.94 2518.38,5102.94C2636.38,5128.94 3036.38,5212.94 3045.38,5212.94C3078.38,5212.94 2504.38,4891.94 2432.38,4868.94C2417.38,4863.94 2392.38,4872.94 2352.38,4896.94C2319.38,4914.95 2233.38,4965.95 2159.38,5008.94ZM2310.38,4817.95L2203.38,4783.95C2116.38,4756.95 2094.38,4752.95 2087.38,4763.95C2083.38,4771.95 2072.38,4810.95 2063.38,4852.95C2054.38,4893.95 2044.38,4936.95 2041.38,4946.95C2034.38,4971.95 2045.38,4967.95 2191.38,4884.95L2310.38,4817.95ZM1941.38,5157.95C1943.38,5143.95 1942.38,5132.95 1938.38,5132.95C1926.38,5132.95 1558.38,5354.95 1446.38,5430.95C1386.38,5470.95 1338.38,5507.95 1338.38,5512.95C1338.38,5541.95 1383.38,5726.95 1405.38,5787.95C1437.38,5877.95 1538.38,6073.95 1583.38,6134.95L1618.38,6182.95L1821.38,6024.95C1932.38,5938.95 2038.38,5856.95 2056.38,5842.95L2087.38,5817.95L2051.38,5727.95C2032.38,5678.95 2003.38,5586.95 1987.38,5524.95C1958.38,5410.95 1932.38,5202.95 1941.38,5157.95ZM2641.38,4880.95C2714.38,4918.95 2861.38,5002.95 2968.38,5067.95C3306.38,5272.95 3338.38,5287.95 3402.38,5262.95C3463.38,5239.95 3485.38,5154.95 3467.38,5011.95C3442.38,4799.95 3351.38,4610.95 3191.38,4433.95L3142.38,4378.95L3057.38,4451.95C2952.38,4543.95 2810.38,4637.95 2640.38,4727.95C2568.38,4766.95 2508.38,4800.95 2508.38,4804.95C2508.38,4807.95 2568.38,4842.95 2641.38,4880.95ZM2255.38,8365.95C2347.38,8418.95 2424.38,8462.95 2426.38,8462.95C2427.38,8462.95 2452.38,8450.95 2481.38,8436.95C2597.38,8378.95 3068.38,8107.95 3068.38,8097.95C3068.38,8092.95 3057.38,8074.95 3044.38,8058.95C3022.38,8029.95 3019.38,8029.95 2982.38,8040.95C2960.38,8046.95 2878.38,8083.95 2799.38,8121.95C2685.38,8177.95 2652.38,8189.95 2637.38,8181.95C2612.38,8168.95 2612.38,8159.95 2654.38,7922.95C2745.38,7396.95 2776.38,7209.95 2773.38,7198.95C2771.38,7192.95 2767.38,7175.95 2764.38,7160.95C2760.38,7144.95 2752.38,7132.95 2745.38,7132.95C2739.38,7132.95 2630.38,7237.95 2503.38,7366.95C2299.38,7574.95 2269.38,7601.95 2238.38,7604.95C2207.38,7607.95 2202.38,7611.95 2185.38,7657.95C2132.38,7798.95 2088.38,8052.95 2088.38,8207.95L2088.38,8267.95L2255.38,8365.95ZM2125.38,8560.95C2131.38,8586.95 2132.38,8586.95 2243.38,8545.95C2282.38,8531.95 2316.38,8516.95 2320.38,8513.95C2324.38,8510.95 2277.38,8477.95 2215.38,8440.95C2153.38,8404.95 2101.38,8376.95 2099.38,8378.95C2095.38,8381.95 2114.38,8514.95 2125.38,8560.95ZM2529.38,8519.95L2611.38,8562.95C2873.38,8701.95 3073.38,8837.95 3168.38,8940.95C3198.38,8973.95 3226.38,9000.95 3230.38,9001.95C3234.38,9001.95 3270.38,8976.95 3310.38,8943.95C3350.38,8911.95 3403.38,8864.95 3427.38,8838.95L3472.38,8792.95L3455.38,8756.95C3435.38,8714.95 3201.38,8312.95 3151.38,8234.95L3117.38,8181.95L3060.38,8214.95C3029.38,8232.95 2896.38,8308.95 2766.38,8383.95L2529.38,8519.95ZM2110.38,7604.95L2150.38,7481.95L2129.38,7412.95C2106.38,7336.95 2063.38,7282.95 2026.38,7282.95C2014.38,7282.95 1931.38,7294.95 1843.38,7307.95C1755.38,7321.95 1662.38,7335.95 1636.38,7338.95C1592.38,7344.95 1587.38,7348.95 1554.38,7401.95C1497.38,7494.95 1442.38,7611.95 1403.38,7722.95L1367.38,7827.95L1400.38,7855.95C1488.38,7929.95 1753.38,8099.95 1913.38,8183.95L2003.38,8231.95L2005.38,8174.95C2007.38,8143.95 2013.38,8072.95 2019.38,8017.95C2033.38,7882.95 2062.38,7751.94 2110.38,7604.95ZM1473.38,6553.94C1434.38,6576.94 1308.38,6677.94 1308.38,6684.94C1308.38,6689.94 1507.38,6841.94 1515.38,6842.94C1516.38,6842.94 1533.38,6792.94 1553.38,6730.94C1572.38,6669.94 1588.38,6614.94 1588.38,6608.94C1588.38,6602.94 1567.38,6584.94 1542.38,6568.94C1500.38,6541.94 1494.38,6540.95 1473.38,6553.94ZM4833.38,8365.95L5001.38,8268.95L4995.38,8133.95C4988.38,7972.95 4969.38,7857.95 4927.38,7710.95C4896.38,7603.95 4895.38,7602.95 4864.38,7602.95C4837.38,7602.95 4808.38,7576.95 4633.38,7400.95C4425.38,7189.95 4374.38,7142.95 4353.38,7142.95C4346.38,7142.95 4335.38,7156.95 4327.38,7173.95C4312.38,7211.95 4310.38,7198.95 4407.38,7751.95C4447.38,7974.95 4476.38,8162.95 4474.38,8169.95C4471.38,8176.95 4462.38,8185.95 4455.38,8188.95C4447.38,8191.95 4366.38,8157.95 4273.38,8113.95C4181.38,8068.95 4100.38,8032.95 4093.38,8032.95C4074.38,8032.95 4041.38,8064.95 4033.38,8089.95C4028.38,8108.95 4057.38,8127.95 4335.38,8286.95C4504.38,8383.95 4648.38,8462.95 4654.38,8462.95C4660.38,8462.95 4740.38,8418.95 4833.38,8365.95ZM4758.38,8512.95C4758.38,8518.95 4934.38,8581.95 4950.38,8582.95C4954.38,8582.95 4962.38,8565.95 4967.38,8545.95C4972.38,8524.95 4980.38,8478.95 4984.38,8443.95L4991.38,8379.95L4902.38,8427.95C4777.38,8494.95 4758.38,8506.95 4758.38,8512.95ZM5081.38,8144.95C5082.38,8187.95 5087.38,8222.95 5091.38,8222.95C5095.38,8222.95 5127.38,8208.95 5161.38,8191.95C5285.38,8128.95 5509.38,7986.95 5646.38,7884.95C5730.38,7822.95 5728.38,7828.95 5687.38,7700.95C5645.38,7571.95 5529.38,7358.95 5495.38,7348.95C5446.38,7333.95 5073.38,7281.95 5053.38,7286.95C5022.38,7294.95 4994.38,7338.95 4973.38,7410.95C4950.38,7487.95 4952.38,7516.95 4991.38,7639.95C5045.38,7807.95 5076.38,7980.95 5081.38,8144.95ZM4516.38,8490.95C4492.38,8476.95 4361.38,8401.95 4224.38,8322.95C3987.38,8186.95 3974.38,8180.95 3961.38,8198.95C3920.38,8254.95 3634.38,8745.95 3624.38,8777.95C3619.38,8793.95 3633.38,8812.95 3686.38,8863.95C3723.38,8899.95 3776.38,8947.95 3803.38,8970.95C3831.38,8993.95 3853.38,9012.95 3853.38,9012.95C3853.38,9012.95 3898.38,8968.95 3953.38,8914.95C4067.38,8803.95 4187.38,8720.95 4403.38,8602.95C4485.38,8557.95 4554.38,8519.95 4556.38,8517.95C4558.38,8516.95 4540.38,8503.95 4516.38,8490.95ZM5498.38,6602.95C5498.38,6609.95 5552.38,6790.95 5563.38,6821.95C5570.38,6840.95 5588.38,6831.95 5694.38,6754.95C5745.38,6717.95 5787.38,6685.95 5787.38,6682.95C5787.38,6671.95 5618.38,6547.95 5599.38,6544.95C5580.38,6541.94 5498.38,6588.94 5498.38,6602.95ZM5681.38,8557.95L5705.38,8487.95C5749.38,8356.95 5761.38,8261.95 5756.38,8089.95C5753.38,8002.95 5748.38,7929.95 5746.38,7926.95C5743.38,7923.95 5704.38,7947.95 5660.38,7979.95C5571.38,8043.95 5201.38,8267.95 5126.38,8303.95C5078.38,8326.95 5078.38,8326.95 5078.38,8376.95C5078.38,8404.95 5072.38,8467.95 5064.38,8515.95C5055.38,8579.95 5054.38,8605.95 5062.38,8608.95C5130.38,8634.95 5346.38,8638.95 5471.38,8617.95C5519.38,8608.95 5586.38,8591.95 5620.38,8579.95L5681.38,8557.95ZM4763.38,9242.95C4787.38,9242.95 4841.38,9235.95 4883.38,9227.95C5136.38,9179.95 5402.38,8996.95 5566.38,8759.95C5620.38,8680.95 5620.38,8674.95 5558.38,8692.95C5486.38,8713.95 5315.38,8722.95 5182.38,8712.95C5110.38,8707.95 5045.38,8702.95 5039.38,8700.95C5032.38,8698.95 5015.38,8729.95 4999.38,8773.95C4955.38,8891.95 4891.38,9006.95 4801.38,9129.95L4719.38,9242.95L4763.38,9242.95ZM4600.38,9225.95C4661.38,9160.95 4790.38,8991.95 4833.38,8919.95C4884.38,8835.95 4944.38,8683.95 4931.38,8672.95C4927.38,8668.95 4892.38,8655.95 4853.38,8643.95C4815.38,8631.95 4756.38,8608.95 4723.38,8593.95L4663.38,8565.95L4514.38,8639.95C4351.38,8721.95 4272.38,8768.95 4161.38,8849.95C4089.38,8901.95 3938.38,9046.95 3938.38,9062.95C3938.38,9086.95 4158.38,9187.95 4283.38,9220.95C4380.38,9245.95 4402.38,9249.95 4499.38,9251.95C4569.38,9252.95 4576.38,9250.95 4600.38,9225.95ZM3731.38,9619.95C3792.38,9615.95 3872.38,9605.95 3908.38,9597.95C4075.38,9557.95 4250.38,9484.95 4387.38,9396.95L4462.38,9348.95L4367.38,9329.95C4234.38,9303.95 4079.38,9249.95 3968.38,9190.95L3874.38,9140.95L3851.38,9168.95C3786.38,9250.95 3618.38,9569.95 3618.38,9611.95C3618.38,9623.95 3638.38,9624.95 3731.38,9619.95ZM3548.38,9531.95C3551.38,9532.95 3564.38,9506.95 3576.38,9474.95C3605.38,9405.95 3693.38,9246.95 3754.38,9155.95C3778.38,9119.95 3798.38,9086.95 3798.38,9082.95C3798.38,9078.95 3781.38,9062.95 3761.38,9046.95C3740.38,9030.95 3684.38,8980.95 3635.38,8933.95L3548.38,8849.95L3490.38,8903.95C3442.38,8949.95 3298.38,9074.95 3291.38,9077.95C3289.38,9078.95 3317.38,9121.95 3351.38,9174.95C3386.38,9227.95 3443.38,9329.95 3479.38,9400.95C3514.38,9472.95 3545.38,9531.95 3548.38,9531.95ZM2692.38,9389.95C2914.38,9534.95 3167.38,9615.95 3416.38,9620.95C3488.38,9622.95 3489.38,9621.95 3483.38,9600.95C3461.38,9521.95 3248.38,9144.95 3221.38,9135.95C3215.38,9133.95 3178.38,9151.95 3137.38,9175.95C2998.38,9257.95 2843.38,9314.95 2701.38,9336.95L2628.38,9347.95L2692.38,9389.95ZM2441.38,9176.95C2502.38,9244.95 2512.38,9251.95 2551.38,9254.95C2615.38,9259.95 2719.38,9246.95 2804.38,9222.95C2890.38,9199.95 2989.38,9155.95 3092.38,9094.95L3162.38,9054.95L3087.38,8980.95C2951.38,8845.95 2802.38,8746.95 2561.38,8630.95L2419.38,8563.95L2361.38,8591.95C2329.38,8607.95 2268.38,8632.95 2226.38,8647.95C2136.38,8679.95 2137.38,8672.95 2193.38,8805.95C2248.38,8935.95 2317.38,9038.95 2441.38,9176.95ZM1586.38,8833.95C1680.38,8952.95 1827.38,9071.95 1963.38,9139.95C2078.38,9197.95 2165.38,9222.95 2328.38,9246.95C2342.38,9248.95 2356.38,9250.95 2361.38,9251.95C2365.38,9251.95 2368.38,9250.95 2368.38,9247.95C2368.38,9244.95 2345.38,9214.95 2317.38,9180.95C2223.38,9063.95 2123.38,8880.95 2082.38,8749.95C2069.38,8707.95 2060.38,8693.95 2050.38,8697.95C2042.38,8700.95 1984.38,8707.95 1921.38,8712.95C1798.38,8722.95 1635.38,8712.95 1536.38,8688.95C1504.38,8681.95 1478.38,8676.95 1478.38,8679.95C1478.38,8688.95 1531.38,8764.95 1586.38,8833.95ZM1366.38,8412.95C1400.38,8537.95 1411.38,8551.95 1491.38,8578.95C1635.38,8627.95 1802.38,8642.95 1955.38,8621.95C1998.38,8615.95 2034.38,8609.95 2036.38,8607.95C2038.38,8606.95 2031.38,8541.95 2021.38,8463.95L2004.38,8322.95L1958.38,8300.95C1895.38,8270.95 1552.38,8063.95 1445.38,7990.95C1396.38,7957.95 1353.38,7934.95 1350.38,7937.95C1346.38,7941.95 1343.38,8030.95 1343.38,8135.95C1343.38,8305.95 1346.38,8337.95 1366.38,8412.95ZM1399.38,7502.95C1431.38,7435.95 1458.38,7379.95 1458.38,7377.95C1458.38,7376.95 1445.38,7372.95 1429.38,7369.95C1381.38,7359.95 1372.38,7330.95 1397.38,7263.95C1408.38,7232.95 1433.38,7150.95 1452.38,7081.95C1472.38,7011.95 1490.38,6947.95 1494.38,6939.95C1498.38,6929.95 1481.38,6913.95 1441.38,6889.95C1409.38,6869.95 1352.38,6828.95 1314.38,6798.95C1276.38,6767.95 1241.38,6742.95 1237.38,6742.95C1215.38,6742.95 1040.38,6960.95 976.38,7067.95C930.38,7144.95 865.38,7300.95 872.38,7318.95C888.38,7359.95 983.38,7487.95 1048.38,7556.95C1119.38,7631.95 1276.38,7772.95 1289.38,7772.95C1292.38,7772.95 1305.38,7739.95 1317.38,7698.95C1330.38,7657.95 1366.38,7569.95 1399.38,7502.95ZM930.38,8082.95C979.38,8197.95 1118.38,8364.95 1248.38,8465.95C1304.38,8509.95 1310.38,8510.95 1294.38,8470.95C1275.38,8424.95 1250.38,8292.95 1243.38,8197.95C1238.38,8128.95 1246.38,8000.95 1263.38,7897.95C1268.38,7870.95 1263.38,7863.95 1206.38,7822.95C1117.38,7758.95 969.38,7614.95 901.38,7525.95L843.38,7449.95L836.38,7488.95C808.38,7644.95 847.38,7888.94 930.38,8082.95ZM787.38,6107.95L768.38,6144.95C708.38,6257.95 668.38,6453.95 668.38,6629.95C668.38,6806.95 689.38,6909.95 766.38,7115.95C800.38,7205.95 818.38,7233.95 818.38,7197.95C818.38,7175.95 900.38,7023.95 956.38,6940.95C984.38,6900.95 1044.38,6825.95 1090.38,6774.95L1173.38,6681.95L1104.38,6609.95C975.38,6474.95 847.38,6278.95 799.38,6142.95L787.38,6107.95ZM1265.38,4866.94C1263.38,4864.94 1227.38,4891.94 1185.38,4927.94C1023.38,5065.94 903.38,5258.94 842.38,5477.94C826.38,5534.94 808.38,5872.94 821.38,5872.94C824.38,5872.94 848.38,5844.94 875.38,5810.94C943.38,5724.94 1063.38,5604.94 1155.38,5531.94L1232.38,5470.94L1233.38,5228.94C1234.38,5031.94 1237.38,4976.94 1251.38,4928.94C1261.38,4896.94 1267.38,4868.94 1265.38,4866.94ZM1264.38,5589.95L1257.38,5560.95L1220.38,5588.95C1098.38,5680.95 964.38,5822.95 883.38,5944.95L844.38,6004.95L867.38,6071.95C925.38,6234.95 1028.38,6399.95 1156.38,6533.95L1239.38,6621.95L1323.38,6555.95L1408.38,6489.95L1373.38,6465.95C1312.38,6424.95 1333.38,6382.95 1456.38,6291.95C1501.38,6258.95 1538.38,6230.95 1538.38,6228.95C1538.38,6226.95 1520.38,6195.95 1499.38,6160.95C1386.38,5974.95 1307.38,5782.95 1264.38,5589.95ZM1371.38,4843.94C1335.38,4932.94 1318.38,5061.94 1318.38,5241.94C1318.38,5426.94 1311.38,5418.94 1406.38,5354.94C1437.38,5333.94 1497.38,5296.94 1538.38,5272.94C1579.38,5248.94 1688.38,5182.94 1780.38,5125.94L1946.38,5021.94L1953.38,4969.94C1957.38,4940.94 1968.38,4877.94 1979.38,4828.94C1989.38,4779.94 1996.38,4736.94 1993.38,4734.94C1982.38,4723.94 1887.38,4713.94 1788.38,4713.94C1679.38,4712.94 1552.38,4733.94 1448.38,4770.94C1396.38,4788.94 1392.38,4792.95 1371.38,4843.94ZM2330.38,4104.95C2292.38,4100.95 2160.38,4126.95 2075.38,4154.95C1841.38,4230.95 1610.38,4414.95 1473.38,4631.95C1454.38,4663.95 1450.38,4673.95 1462.38,4669.95C1471.38,4665.95 1517.38,4655.95 1565.38,4645.95C1663.38,4626.95 1899.38,4623.95 1980.38,4640.95L2027.38,4649.95L2044.38,4598.95C2085.38,4470.95 2181.38,4313.95 2305.38,4172.95L2361.38,4107.95L2330.38,4104.95ZM2546.38,4108.94L2499.38,4101.94L2422.38,4179.94C2340.38,4263.94 2253.38,4373.94 2199.38,4462.94C2166.38,4516.94 2118.38,4631.94 2118.38,4655.94C2118.38,4663.94 2146.38,4676.94 2186.38,4686.94C2223.38,4696.94 2285.38,4717.94 2323.38,4732.94C2401.38,4764.94 2410.38,4766.94 2424.38,4753.94C2429.38,4748.94 2496.38,4712.94 2573.38,4672.94C2743.38,4584.94 2868.38,4502.94 2982.38,4402.94L3069.38,4327.94L3036.38,4299.94C2953.38,4227.95 2705.38,4131.94 2546.38,4108.94ZM3372.38,3745.95C3120.38,3759.95 2886.38,3835.95 2674.38,3973.95C2608.38,4016.95 2600.38,4032.95 2643.38,4032.95C2713.38,4032.95 2975.38,4141.95 3068.38,4210.95C3098.38,4232.95 3126.38,4251.95 3130.38,4251.95C3133.38,4252.95 3166.38,4219.95 3203.38,4180.95C3302.38,4070.95 3448.38,3847.95 3473.38,3763.95L3480.38,3739.95L3372.38,3745.95ZM3590.38,3919.95L3539.38,3830.95L3509.38,3890.95C3468.38,3971.95 3352.38,4142.95 3281.38,4226.95C3249.38,4264.95 3219.38,4301.95 3213.38,4308.95C3206.38,4318.95 3214.38,4333.95 3245.38,4364.95C3365.38,4489.95 3471.38,4670.95 3519.38,4830.95L3543.38,4912.95L3569.38,4830.95C3583.38,4784.95 3614.38,4709.95 3638.38,4662.95C3691.38,4557.95 3740.38,4484.95 3819.38,4393.95L3879.38,4322.95L3818.38,4250.95C3743.38,4160.95 3657.38,4036.94 3590.38,3919.95ZM4431.38,3985.95C4405.38,3966.95 4329.38,3924.95 4263.38,3892.95C4067.38,3797.95 3913.38,3756.95 3710.38,3745.95L3597.38,3739.95L3608.38,3768.95C3628.38,3819.95 3705.38,3955.95 3756.38,4027.95C3813.38,4107.95 3935.38,4252.95 3946.38,4252.95C3950.38,4252.95 3973.38,4238.95 3998.38,4222.95C4126.38,4135.95 4269.38,4071.95 4406.38,4037.95L4479.38,4019.95L4431.38,3985.95ZM4605.38,4113.94C4570.38,4085.94 4335.38,4138.94 4203.38,4204.94C4140.38,4236.94 4018.38,4313.94 4018.38,4322.94C4018.38,4343.94 4148.38,4449.94 4272.38,4531.94C4402.38,4616.94 4679.38,4761.94 4698.38,4754.94C4706.38,4751.94 4763.38,4732.94 4823.38,4711.94C4884.38,4689.94 4943.38,4672.94 4956.38,4672.94C4968.38,4672.94 4978.38,4670.94 4978.38,4668.94C4978.38,4644.94 4887.38,4462.94 4841.38,4395.94C4789.38,4317.95 4647.38,4148.94 4605.38,4113.94ZM5617.38,4635.95C5463.38,4377.95 5167.38,4174.95 4864.38,4117.95C4816.38,4108.95 4766.38,4102.95 4751.38,4104.95C4725.38,4107.95 4725.38,4107.95 4776.38,4166.95C4881.38,4286.95 5004.38,4489.95 5049.38,4615.95C5058.38,4640.95 5067.38,4651.95 5076.38,4647.95C5083.38,4644.95 5132.38,4637.95 5185.38,4631.95C5290.38,4618.95 5472.38,4631.95 5563.38,4656.95C5640.38,4678.94 5642.38,4677.95 5617.38,4635.95ZM5731.38,4888.94C5705.38,4801.94 5703.38,4799.94 5660.38,4781.94C5584.38,4748.94 5456.38,4720.94 5357.38,4715.94C5258.38,4709.94 5121.38,4718.94 5100.38,4731.94C5090.38,4737.94 5092.38,4757.94 5107.38,4822.94C5118.38,4868.94 5130.38,4932.94 5134.38,4964.94L5141.38,5022.94L5237.38,5085.94C5290.38,5120.94 5396.38,5185.94 5473.38,5230.94C5550.38,5275.94 5647.38,5334.94 5688.38,5360.94C5779.38,5419.94 5776.38,5424.94 5777.38,5231.94C5778.38,5081.94 5770.38,5019.95 5731.38,4888.94ZM5619.38,6118.94L5551.38,6237.94L5617.38,6284.94C5739.38,6372.94 5748.38,6381.94 5748.38,6412.94C5748.38,6434.94 5740.38,6445.94 5713.38,6462.94L5679.38,6483.94L5765.38,6553.94C5812.38,6591.94 5853.38,6622.94 5857.38,6622.94C5861.38,6622.94 5882.38,6603.94 5904.38,6580.94C6018.38,6459.94 6102.38,6343.94 6163.38,6222.94C6196.38,6156.94 6248.38,6022.94 6248.38,6001.94C6248.38,5986.94 6125.38,5829.94 6056.38,5756.94C5988.38,5685.94 5840.38,5555.94 5835.38,5563.94C5834.38,5565.94 5823.38,5606.94 5811.38,5654.94C5778.38,5786.94 5696.38,5985.95 5619.38,6118.94ZM6268.38,5587.95C6240.38,5389.95 6149.38,5198.95 5999.38,5024.95C5947.38,4964.95 5842.38,4872.95 5826.38,4872.95C5822.38,4872.95 5826.38,4892.95 5833.38,4916.95C5858.38,4999.95 5871.38,5151.95 5865.38,5291.95C5862.38,5366.95 5856.38,5436.95 5853.38,5448.95C5848.38,5465.95 5857.38,5477.95 5900.38,5508.95C6000.38,5582.95 6108.38,5683.95 6190.38,5782.95L6273.38,5882.95L6276.38,5775.95C6278.38,5715.95 6274.38,5631.94 6268.38,5587.95ZM6336.38,6172.95L6312.38,6117.95L6261.38,6223.95C6188.38,6377.95 6076.38,6533.95 5959.38,6646.95L5918.38,6686.95L5966.38,6736.95C6092.38,6872.95 6174.38,6988.95 6242.38,7130.95L6282.38,7212.95L6314.38,7143.95C6331.38,7106.95 6353.38,7053.95 6361.38,7026.95C6451.38,6751.94 6441.38,6412.95 6336.38,6172.95Z" style="fill:white;fill-rule:nonzero;"/>
                </g>
                <g transform="matrix(1,0,0,1,279.521,436.992)">
                    <text x="0px" y="0px" style="font-family:'Century-Normal', 'Century';font-size:150px;fill:white;">21</text>
                </g>
                <g>
                    <circle cx="354.52" cy="29.91" r="15.7" style="fill:white;"/>
                    <circle cx="258.34" cy="44.38" r="15.7" style="fill:white;"/>
                    <circle cx="170.69" cy="86.55" r="15.7" style="fill:white;"/>
                    <circle cx="99.36" cy="152.69" r="15.7" style="fill:white;"/>
                    <circle cx="50.69" cy="236.9" r="15.7" style="fill:white;"/>
                    <circle cx="29.01" cy="331.72" r="15.7" style="fill:white;"/>
                    <circle cx="36.23" cy="428.72" r="15.7" style="fill:white;"/>
                    <circle cx="71.71" cy="519.29" r="15.7" style="fill:white;"/>
                    <circle cx="132.31" cy="595.37" r="15.7" style="fill:white;"/>
                    <circle cx="212.64" cy="650.21" r="15.7" style="fill:white;"/>
                    <circle cx="305.57" cy="678.95" r="15.7" style="fill:white;"/>
                    <circle cx="402.84" cy="679.02" r="15.7" style="fill:white;"/>
                    <circle cx="495.81" cy="650.43" r="15.7" style="fill:white;"/>
                    <circle cx="576.22" cy="595.7" r="15.7" style="fill:white;"/>
                    <circle cx="636.93" cy="519.71" r="15.7" style="fill:white;"/>
                    <circle cx="672.55" cy="429.2" r="15.7" style="fill:white;"/>
                    <circle cx="679.92" cy="332.21" r="15.7" style="fill:white;"/>
                    <circle cx="658.38" cy="237.36" r="15.7" style="fill:white;"/>
                    <circle cx="609.83" cy="153.07" r="15.7" style="fill:white;"/>
                    <circle cx="538.61" cy="86.83" r="15.7" style="fill:white;"/>
                    <circle cx="450.94" cy="42.84" r="15.7" style="fill:white;"/>
                </g>
            </g>
        </g>
    </g>
</svg>
