<?xml version="1.0" encoding="utf-8"?>
<!-- Generator: Adobe Illustrator 29.6.0, SVG Export Plug-In . SVG Version: 9.03 Build 0)  -->
<svg version="1.0" xmlns="http://www.w3.org/2000/svg" xmlns:xlink="http://www.w3.org/1999/xlink" x="0px" y="0px"
	 viewBox="0 0 708.93 708.93" style="enable-background:new 0 0 708.93 708.93;" xml:space="preserve">
<style type="text/css">
	.st0{display:none;}
	.st1{fill:none;}
	.st2{font-family:'Century-Normal';}
	.st3{font-size:150px;}
</style>
<g id="Layer_1" class="st0">
</g>
<g id="Circles">
	<g>
		<g transform="translate(0.000000,1024.000000) scale(0.100000,-0.100000)">
			<path d="M6345.86,7291c-29,59-30,62-18,117c16.23,73.49,13.91,153.27,12.86,228.03c-1.3,92.66-7.73,184.04-30.19,274.23
				c-42.77,171.74-127.75,330.59-230.12,473.92c-21.51,30.12-44.04,59.89-71.82,84.34c-15.22,13.39-31.87,25.05-48.48,36.67
				c-41.8,29.26-83.6,58.52-125.4,87.78c-37.07,25.95-79.06,45.77-104.23,84.38c-26.52,40.7-50.56,82.67-78.83,122.32
				c-58.73,82.36-125.7,158.84-199.59,227.92c-25.86,24.18-52.57,47.45-80.07,69.75c-33.14,26.87-67.44,52.35-103.4,75.3
				c-172.52,110.07-384.02,163.51-586.98,176.1c-41.93,2.6-73.78,7.64-105.74,36.25c-87.85,78.63-194.07,137.22-300.43,186.69
				c-119.79,55.71-245.65,100.35-374.59,129.47c-143.16,32.33-288.6,33.93-434.68,33.38c-113.89-0.43-226.14-16.26-336.86-42.76
				c-17.58-4.21-35.09-8.71-52.44-13.78c-205-59-437-182-565-298c-27-24-40-28-124-34c-156-11-250-33-394-91
				c-5.05-2.21-8.66-3.34-11.08-2.9c-2.93-1.34-6.1-2.38-9.5-3.12c-2.13-0.98-4.4-1.79-6.71-2.52c-8.22-3.22-16.49-6.03-24.76-8.85
				c-40.39-18.96-76.95-42.69-116.67-64.46c-0.54-0.3-1.08-0.51-1.62-0.79c-9.44-7.73-25.03-18.83-48.66-35.37
				c-144-99-358-345-419-479c-6-15-21-31-33-34c-16.29-4.07-32.46-15.63-46.67-24.07c-22.55-13.39-44.24-28.04-65.99-42.6
				c-56.9-38.12-110.14-84.89-160.06-131.81c-39.65-37.27-68.46-79.8-97.28-125.68c-29.3-46.64-56.38-94.68-81.12-143.89
				c-46.02-91.53-76.66-192.03-98.07-291.95c-20.18-97.02-29.41-196.36-27.16-295.44c0.97-42.64,4.07-85.23,9.36-127.55l13-96
				l-41-75c-55-103-107-264-132-411c-18-104-20-150-16-279c7-195,41-341,117-496l50-103c-66.34-451.1,103.42-942.67,492.98-1198.99
				c89.07-58.61,126.85-149.85,185.91-234.96c66.83-96.29,148.16-182.35,239.66-255.54c182.99-146.35,407.57-241.94,641.08-265.82
				c50.65-5.18,100.57-5.7,151.36-5.7l92-66c212-153,528-269,788-290l71.59-6.59c32.19,0.37,64.61-2.29,96.95-4.38
				c0.62-0.03,1.25-0.06,1.88-0.11c14.52-0.93,29.01-1.61,43.47-1.96c14.33,0.29,28.7,0.48,43.08,0.79c2.56,0.37,5.2,0.62,8.01,0.63
				c6.26,0.01,12.49,0.09,18.71,0.28c8.86,0.43,17.69,1,26.47,1.84c1.07,0.1,2.12,0.08,3.18,0.09c2.2,0.28,4.49,0.44,6.88,0.44
				c0.17,0,0.32-0.02,0.49-0.02c3.46,0.7,6.99,1.11,10.54,1.16l96.76,11.85c124,14,341,70,456,116c113,46,251.99,123,334.99,185.99
				c32.64,24.77,60.97,45.44,102.43,49.14c56.41,5.04,112.03,7.97,168.41,16.5c124.49,18.85,248.89,47.69,362.53,103.34
				c58.48,28.64,113.47,64.05,165.74,102.89c155.61,115.64,313.09,274.09,393.9,453.12c31.15,69,127.26,104.95,183.5,151.74
				c68.75,57.19,130.66,122.54,184.44,193.97c110.25,146.47,177.63,312.26,216.6,490.31c27.44,125.35,35.47,281.54,14.46,408.98
				c-8,52-7,59,25,117c73,133,114,282,133,479C6528.86,6775,6472.86,7041,6345.86,7291z M5806.38,8492.95c4,0,37-23,74-50
				c180-136,327-384,367-625c15-87,17-365,4-365c-5,0-19,17-33,37c-42,62-186,207-291,295c-91,75-100,85-95,110
				c32,161,27,371-13,526C5808.38,8459.95,5803.38,8492.95,5806.38,8492.95z M5817.38,7752.95c9-4,61-48,116-97
				c105-94,180-178,247-277c39-57,40-60,28-100c-38-131-152-316-285-463l-66-73l-57,43c-31,24-90,66-129,92c-40,26-73,51-73,54
				c0,15,70,250,89,301c12,30,21,66,21,79c0,32-27,61-57,61c-22,0-22,3,31,108c29,59,68,146,86,194
				C5795.38,7746.94,5804.38,7760.95,5817.38,7752.95z M4995.38,5041.94c-109-69-265-160-295-171c-24-9-41-3-132,42
				c-187,94-497,276-487,286c2,3,53-7,113-21c186-45,497-106,517-103c44,7,42,28-17,214c-31,98-56,192-56,208c0,22,11,39,43,68
				c76,68,232,188,243,188c6,0,21-21,32-47c73-173,112-362,112-540v-78L4995.38,5041.94z M5042.38,4945.95c-2-10-10-52-19-93
				c-23-111-17-107-126-76c-52,15-97,30-101,34c-7,7,226,151,244,152C5043.38,4962.95,5044.38,4954.95,5042.38,4945.95z
				 M4588.38,4802.95c0-3-35-23-77-44c-180-88-404-233-505-325l-55-50l-40,42c-174,181-282,411-299,642c-8,98,4,144,49,181
				c27,23,37,25,77,20c25-3,77-21,116-40c40-19,112-61,161-94c93-62,416-249,516-298
				C4562.38,4821.94,4588.38,4805.95,4588.38,4802.95z M5014.38,5803.94c-7,15,55,66,369,304l89,68l26-33c14-18,49-73,77-123
				c29-50,67-125,84-166c34-82,89-286,89-330c0-22-18-38-133-112c-72-48-186-117-252-155c-66-37-139-80-162-96c-23-15-43-28-46-28
				c-2,0-7,60-10,133C5138.38,5427.95,5093.38,5612.95,5014.38,5803.94z M5083.38,6017.95c-242-186-461-358-487-383
				c-58-56-72-95-65-176c5-53,40-189,61-237c6-15-3-14-99,2c-185,31-314,59-513,111c-297,76-361,75-412-7l-22-35l-28,38
				c-58,81-125,80-450-2c-206-52-508-116-549-116c-22,0-22-3,39,202c21,68,22,81,11,119c-21,71-85,125-626,534
				c-163,123-382,293-418,325c-4,4,22,24,59,46c71,42,120,90,130,128c6,24-117,464-170,610l-24,66l32-4c17-3,72-10,121-16
				c50-6,152-20,227-31c79-13,152-19,172-15c68,13,115,72,167,212l21,56l202-200c110-110,216-207,235-217c69-35,140-4,183,79
				c28,54,23,103-55,539c-52,295-61,357-48,352c118-47,214-76,255-76c89-1,116,32,300,367c146,267,208,374,217,374
				c3,0,52-84,109-187c206-377,224-409,257-461c66-105,144-119,288-53c135,63,124,67,109-41c-12-85-76-468-108-646
				c-17-94-7-146,40-201c45-52,97-68,150-46c22,9,115,93,240,217c112,111,205,200,207,197c2-2,11-31,21-64c26-84,49-127,90-163
				c51-45,89-48,251-23c170,26,358,51,362,48c1-2-9-30-22-64c-14-33-43-127-65-209c-23-82-54-191-71-242c-33-105-37-176-11-208
				c9-12,51-41,92-64c41-24,77-45,79-47C5577.38,6397.95,5514.38,6347.95,5083.38,6017.95z M2159.38,5008.94l-134,78l6,150
				c6,156,22,242,70,381c41,116,56,147,70,138c7-4,70-52,140-106c70-55,132-108,137-118c18-33,10-91-26-195c-53-154-73-230-64-244
				c11-18,47-15,160,10c118,26,518,110,527,110c33,0-541-321-613-344c-15-5-40,4-80,28
				C2319.38,4914.95,2233.38,4965.95,2159.38,5008.94z M2310.38,4817.95l-107-34c-87-27-109-31-116-20c-4,8-15,47-24,89
				c-9,41-19,84-22,94c-7,25,4,21,150-62L2310.38,4817.95z M1941.38,5157.95c2-14,1-25-3-25c-12,0-380,222-492,298
				c-60,40-108,77-108,82c0,29,45,214,67,275c32,90,133,286,178,347l35,48l203-158c111-86,217-168,235-182l31-25l-36-90
				c-19-49-48-141-64-203C1958.38,5410.95,1932.38,5202.95,1941.38,5157.95z M2641.38,4880.95c73,38,220,122,327,187
				c338,205,370,220,434,195c61-23,83-108,65-251c-25-212-116-401-276-578l-49-55l-85,73c-105,92-247,186-417,276
				c-72,39-132,73-132,77C2508.38,4807.95,2568.38,4842.95,2641.38,4880.95z M2255.38,8365.95c92,53,169,97,171,97c1,0,26-12,55-26
				c116-58,587-329,587-339c0-5-11-23-24-39c-22-29-25-29-62-18c-22,6-104,43-183,81c-114,56-147,68-162,60c-25-13-25-22,17-259
				c91-526,122-713,119-724c-2-6-6-23-9-38c-4-16-12-28-19-28c-6,0-115,105-242,234c-204,208-234,235-265,238c-31,3-36,7-53,53
				c-53,141-97,395-97,550v60L2255.38,8365.95z M2125.38,8560.95c6,26,7,26,118-15c39-14,73-29,77-32s-43-36-105-73
				c-62-36-114-64-116-62C2095.38,8381.95,2114.38,8514.95,2125.38,8560.95z M2529.38,8519.95l82,43c262,139,462,275,557,378
				c30,33,58,60,62,61c4,0,40-25,80-58c40-32,93-79,117-105l45-46l-17-36c-20-42-254-444-304-522l-34-53l-57,33
				c-31,18-164,94-294,169L2529.38,8519.95z M2110.38,7604.95l40-123l-21-69c-23-76-66-130-103-130c-12,0-95,12-183,25
				c-88,14-181,28-207,31c-44,6-49,10-82,63c-57,93-112,210-151,321l-36,105l33,28c88,74,353,244,513,328l90,48l2-57
				c2-31,8-102,14-157C2033.38,7882.95,2062.38,7751.94,2110.38,7604.95z M1473.38,6553.94c-39,23-165,124-165,131
				c0,5,199,157,207,158c1,0,18-50,38-112c19-61,35-116,35-122c0-6-21-24-46-40C1500.38,6541.94,1494.38,6540.95,1473.38,6553.94z
				 M4833.38,8365.95l168-97l-6-135c-7-161-26-276-68-423c-31-107-32-108-63-108c-27,0-56-26-231-202c-208-211-259-258-280-258
				c-7,0-18,14-26,31c-15,38-17,25,80,578c40,223,69,411,67,418c-3,7-12,16-19,19c-8,3-89-31-182-75c-92-45-173-81-180-81
				c-19,0-52,32-60,57c-5,19,24,38,302,197c169,97,313,176,319,176C4660.38,8462.95,4740.38,8418.95,4833.38,8365.95z
				 M4758.38,8512.95c0,6,176,69,192,70c4,0,12-17,17-37c5-21,13-67,17-102l7-64l-89,48
				C4777.38,8494.95,4758.38,8506.95,4758.38,8512.95z M5081.38,8144.95c1,43,6,78,10,78c4,0,36-14,70-31c124-63,348-205,485-307
				c84-62,82-56,41-184c-42-129-158-342-192-352c-49-15-422-67-442-62c-31,8-59,52-80,124c-23,77-21,106,18,229
				C5045.38,7807.95,5076.38,7980.95,5081.38,8144.95z M4516.38,8490.95c-24-14-155-89-292-168c-237-136-250-142-263-124
				c-41,56-327,547-337,579c-5,16,9,35,62,86c37,36,90,84,117,107c28,23,50,42,50,42s45-44,100-98c114-111,234-194,450-312
				c82-45,151-83,153-85C4558.38,8516.95,4540.38,8503.95,4516.38,8490.95z M5498.38,6602.95c0,7,54,188,65,219c7,19,25,10,131-67
				c51-37,93-69,93-72c0-11-169-135-188-138C5580.38,6541.94,5498.38,6588.94,5498.38,6602.95z M5681.38,8557.95l24-70
				c44-131,56-226,51-398c-3-87-8-160-10-163c-3-3-42,21-86,53c-89,64-459,288-534,324c-48,23-48,23-48,73c0,28-6,91-14,139
				c-9,64-10,90-2,93c68,26,284,30,409,9c48-9,115-26,149-38L5681.38,8557.95z M4763.38,9242.95c24,0,78-7,120-15
				c253-48,519-231,683-468c54-79,54-85-8-67c-72,21-243,30-376,20c-72-5-137-10-143-12c-7-2-24,29-40,73c-44,118-108,233-198,356
				l-82,113H4763.38z M4600.38,9225.95c61-65,190-234,233-306c51-84,111-236,98-247c-4-4-39-17-78-29c-38-12-97-35-130-50l-60-28
				l-149,74c-163,82-242,129-353,210c-72,52-223,197-223,213c0,24,220,125,345,158c97,25,119,29,216,31
				C4569.38,9252.95,4576.38,9250.95,4600.38,9225.95z M3731.38,9619.95c61-4,141-14,177-22c167-40,342-113,479-201l75-48l-95-19
				c-133-26-288-80-399-139l-94-50l-23,28c-65,82-233,401-233,443C3618.38,9623.95,3638.38,9624.95,3731.38,9619.95z
				 M3548.38,9531.95c3,1,16-25,28-57c29-69,117-228,178-319c24-36,44-69,44-73s-17-20-37-36c-21-16-77-66-126-113l-87-84l-58,54
				c-48,46-192,171-199,174c-2,1,26,44,60,97c35,53,92,155,128,226C3514.38,9472.95,3545.38,9531.95,3548.38,9531.95z
				 M2692.38,9389.95c222,145,475,226,724,231c72,2,73,1,67-20c-22-79-235-456-262-465c-6-2-43,16-84,40c-139,82-294,139-436,161
				l-73,11L2692.38,9389.95z M2441.38,9176.95c61,68,71,75,110,78c64,5,168-8,253-32c86-23,185-67,288-128l70-40l-75-74
				c-136-135-285-234-526-350l-142-67l-58,28c-32,16-93,41-135,56c-90,32-89,25-33,158
				C2248.38,8935.95,2317.38,9038.95,2441.38,9176.95z M1586.38,8833.95c94,119,241,238,377,306c115,58,202,83,365,107
				c14,2,28,4,33,5c4,0,7-1,7-4s-23-33-51-67c-94-117-194-300-235-431c-13-42-22-56-32-52c-8,3-66,10-129,15c-123,10-286,0-385-24
				c-32-7-58-12-58-9C1478.38,8688.95,1531.38,8764.95,1586.38,8833.95z M1366.38,8412.95c34,125,45,139,125,166
				c144,49,311,64,464,43c43-6,79-12,81-14c2-1-5-66-15-144l-17-141l-46-22c-63-30-406-237-513-310c-49-33-92-56-95-53
				c-4,4-7,93-7,198C1343.38,8305.95,1346.38,8337.95,1366.38,8412.95z M1399.38,7502.95c32-67,59-123,59-125c0-1-13-5-29-8
				c-48-10-57-39-32-106c11-31,36-113,55-182c20-70,38-134,42-142c4-10-13-26-53-50c-32-20-89-61-127-91c-38-31-73-56-77-56
				c-22,0-197,218-261,325c-46,77-111,233-104,251c16,41,111,169,176,238c71,75,228,216,241,216c3,0,16-33,28-74
				C1330.38,7657.95,1366.38,7569.95,1399.38,7502.95z M930.38,8082.95c49,115,188,282,318,383c56,44,62,45,46,5
				c-19-46-44-178-51-273c-5-69,3-197,20-300c5-27,0-34-57-75c-89-64-237-208-305-297l-58-76l-7,39
				C808.38,7644.95,847.38,7888.94,930.38,8082.95z M787.38,6107.95l-19,37c-60,113-100,309-100,485c0,177,21,280,98,486
				c34,90,52,118,52,82c0-22,82-174,138-257c28-40,88-115,134-166l83-93l-69-72c-129-135-257-331-305-467L787.38,6107.95z
				 M1265.38,4866.94c-2-2-38,25-80,61c-162,138-282,331-343,550c-16,57-34,395-21,395c3,0,27-28,54-62c68-86,188-206,280-279l77-61
				l1-242c1-197,4-252,18-300C1261.38,4896.94,1267.38,4868.94,1265.38,4866.94z M1264.38,5589.95l-7-29l-37,28
				c-122,92-256,234-337,356l-39,60l23,67c58,163,161,328,289,462l83,88l84-66l85-66l-35-24c-61-41-40-83,83-174c45-33,82-61,82-63
				c0-2-18-33-39-68C1386.38,5974.95,1307.38,5782.95,1264.38,5589.95z M1371.38,4843.94c-36,89-53,218-53,398c0,185-7,177,88,113
				c31-21,91-58,132-82c41-24,150-90,242-147l166-104l7-52c4-29,15-92,26-141c10-49,17-92,14-94c-11-11-106-21-205-21
				c-109-1-236,20-340,57C1396.38,4788.94,1392.38,4792.95,1371.38,4843.94z M2330.38,4104.95c-38-4-170,22-255,50
				c-234,76-465,260-602,477c-19,32-23,42-11,38c9-4,55-14,103-24c98-19,334-22,415-5l47,9l17-51c41-128,137-285,261-426l56-65
				L2330.38,4104.95z M2546.38,4108.94l-47-7l-77,78c-82,84-169,194-223,283c-33,54-81,169-81,193c0,8,28,21,68,31
				c37,10,99,31,137,46c78,32,87,34,101,21c5-5,72-41,149-81c170-88,295-170,409-270l87-75l-33-28
				C2953.38,4227.95,2705.38,4131.94,2546.38,4108.94z M3372.38,3745.95c-252,14-486,90-698,228c-66,43-74,59-31,59
				c70,0,332,109,425,178c30,22,58,41,62,41c3,1,36-32,73-71c99-110,245-333,270-417l7-24L3372.38,3745.95z M3590.38,3919.95l-51-89
				l-30,60c-41,81-157,252-228,336c-32,38-62,75-68,82c-7,10,1,25,32,56c120,125,226,306,274,466l24,82l26-82c14-46,45-121,69-168
				c53-105,102-178,181-269l60-71l-61-72C3743.38,4160.95,3657.38,4036.94,3590.38,3919.95z M4431.38,3985.95c-26-19-102-61-168-93
				c-196-95-350-136-553-147l-113-6l11,29c20,51,97,187,148,259c57,80,179,225,190,225c4,0,27-14,52-30c128-87,271-151,408-185
				l73-18L4431.38,3985.95z M4605.38,4113.94c-35-28-270,25-402,91c-63,32-185,109-185,118c0,21,130,127,254,209
				c130,85,407,230,426,223c8-3,65-22,125-43c61-22,120-39,133-39c12,0,22-2,22-4c0-24-91-206-137-273
				C4789.38,4317.95,4647.38,4148.94,4605.38,4113.94z M5617.38,4635.95c-154-258-450-461-753-518c-48-9-98-15-113-13
				c-26,3-26,3,25,62c105,120,228,323,273,449c9,25,18,36,27,32c7-3,56-10,109-16c105-13,287,0,378,25
				C5640.38,4678.94,5642.38,4677.95,5617.38,4635.95z M5731.38,4888.94c-26-87-28-89-71-107c-76-33-204-61-303-66
				c-99-6-236,3-257,16c-10,6-8,26,7,91c11,46,23,110,27,142l7,58l96,63c53,35,159,100,236,145c77,45,174,104,215,130
				c91,59,88,64,89-129C5778.38,5081.94,5770.38,5019.95,5731.38,4888.94z M5619.38,6118.94l-68,119l66,47c122,88,131,97,131,128
				c0,22-8,33-35,50l-34,21l86,70c47,38,88,69,92,69c4,0,25-19,47-42c114-121,198-237,259-358c33-66,85-200,85-221
				c0-15-123-172-192-245c-68-71-216-201-221-193c-1,2-12,43-24,91C5778.38,5786.94,5696.38,5985.95,5619.38,6118.94z
				 M6268.38,5587.95c-28-198-119-389-269-563c-52-60-157-152-173-152c-4,0,0,20,7,44c25,83,38,235,32,375c-3,75-9,145-12,157
				c-5,17,4,29,47,60c100,74,208,175,290,274l83,100l3-107C6278.38,5715.95,6274.38,5631.94,6268.38,5587.95z M6336.38,6172.95
				l-24-55l-51,106c-73,154-185,310-302,423l-41,40l48,50c126,136,208,252,276,394l40,82l32-69c17-37,39-90,47-117
				C6451.38,6751.94,6441.38,6412.95,6336.38,6172.95z"/>
			<path d="M3408.38,9727.95"/>
			<path d="M3382.38,9940.95"/>
		</g>
		<rect x="254.13" y="295.71" class="st1" width="200.79" height="167.49"/>
		<text transform="matrix(1 0 0 1 279.5206 436.9918)" class="st2 st3">21</text>
		<circle cx="354.52" cy="29.91" r="15.7"/>
		<circle cx="258.34" cy="44.38" r="15.7"/>
		<circle cx="170.69" cy="86.55" r="15.7"/>
		<circle cx="99.36" cy="152.69" r="15.7"/>
		<circle cx="50.69" cy="236.9" r="15.7"/>
		<circle cx="29.01" cy="331.72" r="15.7"/>
		<circle cx="36.23" cy="428.72" r="15.7"/>
		<circle cx="71.71" cy="519.29" r="15.7"/>
		<circle cx="132.31" cy="595.37" r="15.7"/>
		<circle cx="212.64" cy="650.21" r="15.7"/>
		<circle cx="305.57" cy="678.95" r="15.7"/>
		<circle cx="402.84" cy="679.02" r="15.7"/>
		<circle cx="495.81" cy="650.43" r="15.7"/>
		<circle cx="576.22" cy="595.7" r="15.7"/>
		<circle cx="636.93" cy="519.71" r="15.7"/>
		<circle cx="672.55" cy="429.2" r="15.7"/>
		<circle cx="679.92" cy="332.21" r="15.7"/>
		<circle cx="658.38" cy="237.36" r="15.7"/>
		<circle cx="609.83" cy="153.07" r="15.7"/>
		<circle cx="538.61" cy="86.83" r="15.7"/>
		<circle cx="450.94" cy="42.84" r="15.7"/>
	</g>
</g>
</svg>
